<svg xmlns="http://www.w3.org/2000/svg" viewBox="0 0 512 512"><rect width="512" height="512" rx="50" ry="50" fill="#000000"/><path d="M160.693 0L26.367 0L26.367-218.262L159.375-218.262L159.375-193.652L54.199-193.652L54.199-122.461L152.197-122.461L152.197-97.852L54.199-97.852L54.199-24.609L160.693-24.609L160.693 0ZM233.203 0L206.689 0L206.689-218.262L246.240-218.262L300-80.566Q301.904-75.732 304.321-68.481Q306.738-61.230 309.448-52.734Q312.158-44.238 314.648-35.815Q317.139-27.393 319.043-20.215L319.043-20.215L312.891-20.215Q314.941-26.953 317.432-35.229Q319.922-43.506 322.632-52.075Q325.342-60.645 327.832-68.115Q330.322-75.586 332.227-80.566L332.227-80.566L385.254-218.262L424.951-218.262L424.951 0L397.559 0L397.559-124.658Q397.559-131.396 397.632-140.039Q397.705-148.682 397.925-158.203Q398.145-167.725 398.364-177.539Q398.584-187.354 398.730-196.582L398.730-196.582L401.074-196.582Q397.998-186.475 394.556-176.001Q391.113-165.527 387.817-155.786Q384.521-146.045 381.592-137.988Q378.662-129.932 376.611-124.658L376.611-124.658L327.832 0L303.662 0L254.150-124.658Q252.100-129.785 249.316-137.622Q246.533-145.459 243.237-155.054Q239.941-164.648 236.426-175.269Q232.910-185.889 229.248-196.582L229.248-196.582L231.885-196.582Q232.178-188.379 232.397-178.857Q232.617-169.336 232.764-159.595Q232.910-149.854 233.057-140.845Q233.203-131.836 233.203-124.658L233.203-124.658L233.203 0Z" fill="#fff" transform="translate(30.341007232666016, 365.13099670410156)"/></svg>